# xmcd
#
# Track frame offsets:
#       150
#       15790
#       30683
#       44633
#       65032
#       80147
#       94598
#       108201
#       122593
#       137393
#       167548
#       191427
#       215790
#       240793
#       264998
#       286951
#
# Disc length: 3973 seconds
#
# Revision: 1
# Processed by: cddbd v1.5.2PL0 Copyright (c) Steve Scherf et al.
# Submitted via: FreeDbEdit v0.1
#
DISCID=d00f8310
DTITLE=Coleman Hawkins - Jazz Basics
DYEAR=1900
DGENRE=Jazz
TTITLE0=One Hour
TTITLE1=Out of Nowhere
TTITLE2=Body and Soul
TTITLE3=I Surrender Dear
TTITLE4=Stumpy
TTITLE5=Bu Dee Daht
TTITLE6=Pick Up Boys
TTITLE7=April in Paris
TTITLE8=Picasso
TTITLE9=Blue and Sentimental
TTITLE10=Lullaby of Birdland
TTITLE11=Out of Nowhere
TTITLE12=Let Me Miss You, Baby
TTITLE13=Tangerine
TTITLE14=Walkin' My Baby Back Home
TTITLE15=Time on My Hands
EXTD=
EXTT0=
EXTT1=
EXTT2=
EXTT3=
EXTT4=
EXTT5=
EXTT6=
EXTT7=
EXTT8=
EXTT9=
EXTT10=
EXTT11=
EXTT12=
EXTT13=
EXTT14=
EXTT15=
PLAYORDER=
